<svg xmlns="http://www.w3.org/2000/svg" width="223.368" height="256.498" viewBox="0 0 223.368 256.498">
  <g id="idea" transform="translate(-33.066)">
    <path id="Path_289" data-name="Path 289" d="M211.914,234.345a60.17,60.17,0,0,1,18.169-27.788,73,73,0,0,0,26.184-56.109,73.782,73.782,0,0,0-77.484-73.743c-37.941,1.6-68.934,33.665-70,71.606a73.206,73.206,0,0,0,26.184,58.247,57.336,57.336,0,0,1,18.7,27.788Z" transform="translate(-37.773 -38.231)" fill="#ffd15c"/>
    <path id="Path_290" data-name="Path 290" d="M220.633,305.239h4.809l-21.375-79.621h1.6a10.549,10.549,0,0,0,7.481-3.206,5.166,5.166,0,0,1,7.482,0,9.129,9.129,0,0,0,13.893,0,4.852,4.852,0,0,1,3.741-1.6,5.775,5.775,0,0,1,3.741,1.6,9.7,9.7,0,0,0,7.481,3.206h1.6l-20.84,79.621h4.809l21.909-83.362c0-1.069,0-2.138-1.069-2.672a2.349,2.349,0,0,0-2.672.535,4.619,4.619,0,0,1-3.206,1.6,7.107,7.107,0,0,1-4.275-1.6,9.129,9.129,0,0,0-13.894,0,5.165,5.165,0,0,1-7.481,0,8.616,8.616,0,0,0-6.947-3.206h0a8.617,8.617,0,0,0-6.947,3.206,6.068,6.068,0,0,1-4.275,1.6,3.81,3.81,0,0,1-3.206-1.6,2.35,2.35,0,0,0-2.672-.535,1.952,1.952,0,0,0-1.069,2.672Z" transform="translate(-82.83 -108.056)" fill="#fff"/>
    <g id="Group_180" data-name="Group 180" transform="translate(115.894 195.58)">
      <path id="Path_291" data-name="Path 291" d="M222.933,489.6a17.838,17.838,0,0,0,33.131,0Z" transform="translate(-210.643 -439.903)" fill="#344a5e"/>
      <path id="Path_292" data-name="Path 292" d="M247.028,440.631H208.019a9.578,9.578,0,0,1-9.619-9.619V390.4h58.247v40.612A9.579,9.579,0,0,1,247.028,440.631Z" transform="translate(-198.4 -390.4)" fill="#344a5e"/>
    </g>
    <g id="Group_181" data-name="Group 181" transform="translate(110.016 204.13)">
      <path id="Path_293" data-name="Path 293" d="M250.257,419.223H192.545a5.93,5.93,0,0,1-5.878-5.878h0a5.93,5.93,0,0,1,5.878-5.878h57.712a5.93,5.93,0,0,1,5.878,5.878h0A5.93,5.93,0,0,1,250.257,419.223Z" transform="translate(-186.667 -407.467)" fill="#415a6b"/>
      <path id="Path_294" data-name="Path 294" d="M250.257,456.557H192.545a5.93,5.93,0,0,1-5.878-5.878h0a5.93,5.93,0,0,1,5.878-5.878h57.712a5.93,5.93,0,0,1,5.878,5.878h0A5.93,5.93,0,0,1,250.257,456.557Z" transform="translate(-186.667 -426.098)" fill="#415a6b"/>
    </g>
    <g id="Group_182" data-name="Group 182" transform="translate(33.066)">
      <path id="Path_295" data-name="Path 295" d="M250.677,0a5.355,5.355,0,0,0-5.344,5.344V23.513a5.355,5.355,0,0,0,5.344,5.344,5.049,5.049,0,0,0,5.344-5.344V5.344A5.355,5.355,0,0,0,250.677,0Z" transform="translate(-138.993)" fill="#ffd15c"/>
      <path id="Path_296" data-name="Path 296" d="M104.018,63.47a5.29,5.29,0,0,0-7.481,7.481l12.825,12.825a5.29,5.29,0,0,0,7.481-7.481Z" transform="translate(-63.94 -30.873)" fill="#ffd15c"/>
      <path id="Path_297" data-name="Path 297" d="M56.579,212.267H38.41a5.355,5.355,0,0,0-5.344,5.344h0a5.355,5.355,0,0,0,5.344,5.344H56.579a5.355,5.355,0,0,0,5.344-5.344h0A5.747,5.747,0,0,0,56.579,212.267Z" transform="translate(-33.066 -105.927)" fill="#ffd15c"/>
      <path id="Path_298" data-name="Path 298" d="M109.361,338.67,96.536,351.5a5.29,5.29,0,0,0,7.481,7.481l12.825-12.825a5.29,5.29,0,1,0-7.481-7.481Z" transform="translate(-63.939 -168.205)" fill="#ffd15c"/>
      <path id="Path_299" data-name="Path 299" d="M379.218,338.67a5.29,5.29,0,1,0-7.482,7.481l12.825,12.825a5.29,5.29,0,0,0,7.481-7.481Z" transform="translate(-201.271 -168.205)" fill="#ffd15c"/>
      <path id="Path_300" data-name="Path 300" d="M444.846,212.267H426.677a5.355,5.355,0,0,0-5.344,5.344h0a5.355,5.355,0,0,0,5.344,5.344h18.169a5.355,5.355,0,0,0,5.344-5.344h0A5.355,5.355,0,0,0,444.846,212.267Z" transform="translate(-226.822 -105.927)" fill="#ffd15c"/>
      <path id="Path_301" data-name="Path 301" d="M384.561,63.47,371.736,76.3a5.29,5.29,0,0,0,7.481,7.481l12.825-12.825a5.29,5.29,0,0,0-7.481-7.481Z" transform="translate(-201.271 -30.873)" fill="#ffd15c"/>
    </g>
  </g>
</svg>
