<svg xmlns="http://www.w3.org/2000/svg" xmlns:xlink="http://www.w3.org/1999/xlink" width="54" height="54" viewBox="0 0 54 54">
  <defs>
    <filter id="scale-white-color-0" x="-20" y="-20" width="114" height="114" filterUnits="userSpaceOnUse">
      <feOffset dx="10" dy="10" input="SourceAlpha"/>
      <feGaussianBlur stdDeviation="10" result="blur"/>
      <feFlood flood-color="#080821" flood-opacity="0.059"/>
      <feComposite operator="in" in2="blur"/>
      <feComposite in="SourceGraphic"/>
    </filter>
    <clipPath id="clip-path">
      <g transform="matrix(1, 0, 0, 1, 0, 0)" filter="url(#scale-white-color-0)">
        <rect id="scale-white-color-0-2" data-name="scale-white-color-0" width="54" height="54" rx="27" transform="translate(0.1)" fill="#1414fe"/>
      </g>
    </clipPath>
  </defs>
  <g id="Group_186" data-name="Group 186" transform="translate(-43 -204)">
    <g id="push_light_btn" transform="translate(42.897 204)">
      <g id="Group_39" data-name="Group 39">
        <rect id="scale-white-color-0-3" data-name="scale-white-color-0" width="54" height="54" rx="27" transform="translate(0.103)" fill="#f3f3f6"/>
        <g id="Mask_Group_2" data-name="Mask Group 2" clip-path="url(#clip-path)">
          <g id="scale-white-color-0-4" data-name="scale-white-color-0" transform="translate(-1.462 -1.462)" fill="none" stroke="#080821" stroke-width="4" opacity="0.16">
            <rect width="61.067" height="61.067" rx="30.534" stroke="none"/>
            <rect x="2" y="2" width="57.067" height="57.067" rx="28.534" fill="none"/>
          </g>
          <g id="scale-white-color-0-5" data-name="scale-white-color-0" transform="translate(-6.785 -6.785)" fill="none" stroke="#fff" stroke-width="4">
            <rect width="61.067" height="61.067" rx="30.534" stroke="none"/>
            <rect x="2" y="2" width="57.067" height="57.067" rx="28.534" fill="none"/>
          </g>
        </g>
      </g>
      <g id="scale-white-color-0-6" data-name="scale-white-color-0" transform="translate(0.103)" fill="none" stroke="#ebebeb" stroke-width="0.5" opacity="0.6">
        <rect width="54" height="54" rx="27" stroke="none"/>
        <rect x="0.25" y="0.25" width="53.5" height="53.5" rx="26.75" fill="none"/>
      </g>
    </g>
    <g id="controls" transform="translate(56.08 244.92) rotate(-90)">
      <path id="Path_302" data-name="Path 302" d="M9.28,7.83A2.032,2.032,0,0,0,7.25,5.8H5.8V1.16a1.16,1.16,0,0,0-2.32,0V5.8H2.03A2.032,2.032,0,0,0,0,7.83V9.57A2.032,2.032,0,0,0,2.03,11.6H3.48V26.68a1.16,1.16,0,1,0,2.32,0V11.6H7.25A2.032,2.032,0,0,0,9.28,9.57Z" fill="#9eb0ba"/>
      <path id="Path_303" data-name="Path 303" d="M23.25,5.8H21.8V1.16a1.16,1.16,0,1,0-2.32,0V5.8H18.03A2.032,2.032,0,0,0,16,7.83V9.57a2.032,2.032,0,0,0,2.03,2.03h1.45V26.68a1.16,1.16,0,1,0,2.32,0V11.6h1.45a2.032,2.032,0,0,0,2.03-2.03V7.83A2.032,2.032,0,0,0,23.25,5.8Z" transform="translate(2.56)" fill="#9eb0ba"/>
      <path id="Path_304" data-name="Path 304" d="M15.25,17.4H13.8V1.16a1.16,1.16,0,0,0-2.32,0V17.4H10.03A2.032,2.032,0,0,0,8,19.43v1.74a2.032,2.032,0,0,0,2.03,2.03h1.45v3.48a1.16,1.16,0,0,0,2.32,0V23.2h1.45a2.032,2.032,0,0,0,2.03-2.03V19.43A2.032,2.032,0,0,0,15.25,17.4Z" transform="translate(1.28)" fill="#9eb0ba"/>
    </g>
  </g>
</svg>
