<svg id="dashboard" xmlns="http://www.w3.org/2000/svg" width="15.81" height="15.81" viewBox="0 0 15.81 15.81">
  <path id="Path_265" data-name="Path 265" d="M6.093,0H1.153A1.154,1.154,0,0,0,0,1.153V4.117A1.154,1.154,0,0,0,1.153,5.27H6.093A1.154,1.154,0,0,0,7.246,4.117V1.153A1.154,1.154,0,0,0,6.093,0Zm0,0" fill="#22aae2"/>
  <path id="Path_266" data-name="Path 266" d="M6.093,213.332H1.153A1.154,1.154,0,0,0,0,214.485V221.4a1.154,1.154,0,0,0,1.153,1.153H6.093A1.154,1.154,0,0,0,7.246,221.4v-6.917A1.154,1.154,0,0,0,6.093,213.332Zm0,0" transform="translate(0 -206.745)" fill="#22aae2"/>
  <path id="Path_267" data-name="Path 267" d="M283.425,341.332h-4.941a1.154,1.154,0,0,0-1.153,1.153v2.964a1.154,1.154,0,0,0,1.153,1.153h4.941a1.154,1.154,0,0,0,1.153-1.153v-2.964A1.154,1.154,0,0,0,283.425,341.332Zm0,0" transform="translate(-268.768 -330.792)" fill="#22aae2"/>
  <path id="Path_268" data-name="Path 268" d="M283.425,0h-4.941a1.154,1.154,0,0,0-1.153,1.153V8.07a1.154,1.154,0,0,0,1.153,1.153h4.941a1.154,1.154,0,0,0,1.153-1.153V1.153A1.154,1.154,0,0,0,283.425,0Zm0,0" transform="translate(-268.768)" fill="#22aae2"/>
</svg>
