<svg xmlns="http://www.w3.org/2000/svg" xmlns:xlink="http://www.w3.org/1999/xlink" width="98" height="97" viewBox="0 0 98 97">
  <defs>
    <filter id="scale-white-color-0" x="12" y="12" width="86" height="85" filterUnits="userSpaceOnUse">
      <feOffset dx="6" dy="6" input="SourceAlpha"/>
      <feGaussianBlur stdDeviation="6" result="blur"/>
      <feFlood flood-color="#080821" flood-opacity="0.059"/>
      <feComposite operator="in" in2="blur"/>
      <feComposite in="SourceGraphic"/>
    </filter>
    <filter id="scale-white-color-0-2" x="0" y="0" width="86" height="85" filterUnits="userSpaceOnUse">
      <feOffset dx="-6" dy="-6" input="SourceAlpha"/>
      <feGaussianBlur stdDeviation="6" result="blur-2"/>
      <feFlood flood-color="#fff" flood-opacity="0.702"/>
      <feComposite operator="in" in2="blur-2"/>
      <feComposite in="SourceGraphic"/>
    </filter>
    <linearGradient id="linear-gradient" x1="-0.062" y1="-0.136" x2="0.378" y2="0.386" gradientUnits="objectBoundingBox">
      <stop offset="0" stop-opacity="0.302"/>
      <stop offset="1" stop-opacity="0"/>
    </linearGradient>
  </defs>
  <g id="Group_1737" data-name="Group 1737" transform="translate(-207 -209)">
    <g id="up_light_btn" transform="translate(231.281 232.611)">
      <g id="Group_38" data-name="Group 38" transform="translate(0 0)">
        <g transform="matrix(1, 0, 0, 1, -24.28, -23.61)" filter="url(#scale-white-color-0)">
          <rect id="scale-white-color-0-3" data-name="scale-white-color-0" width="50" height="49" rx="20" transform="translate(24 24)" fill="#f3f3f6"/>
        </g>
        <g transform="matrix(1, 0, 0, 1, -24.28, -23.61)" filter="url(#scale-white-color-0-2)">
          <rect id="scale-white-color-0-4" data-name="scale-white-color-0" width="50" height="49" rx="10" transform="translate(24 24)" fill="#f3f3f6"/>
        </g>
      </g>
      <g id="scale-white-color-0-5" data-name="scale-white-color-0" transform="translate(-0.281 0.389)" fill="none" stroke="#ebebeb" stroke-width="0.5" opacity="0.16">
        <rect width="50" height="49" rx="20" stroke="none"/>
        <rect x="0.25" y="0.25" width="49.5" height="48.5" rx="19.75" fill="none"/>
      </g>
      <rect id="scale-white-color-0-6" data-name="scale-white-color-0" width="50" height="49" rx="10" transform="translate(-0.281 0.389)" opacity="0.1" fill="url(#linear-gradient)"/>
    </g>
    <path id="home" d="M15.383,6.876h0L8.933.427a1.455,1.455,0,0,0-2.058,0L.429,6.872l-.007.007a1.455,1.455,0,0,0,.969,2.48l.045,0h.257v4.746a1.705,1.705,0,0,0,1.7,1.7H5.919a.463.463,0,0,0,.463-.463V11.626a.778.778,0,0,1,.777-.777H8.648a.778.778,0,0,1,.777.777v3.721a.463.463,0,0,0,.463.463h2.523a1.705,1.705,0,0,0,1.7-1.7V9.361h.238a1.456,1.456,0,0,0,1.03-2.484Zm0,0" transform="translate(248 250)" fill="#9eb0ba"/>
  </g>
</svg>
