<svg xmlns="http://www.w3.org/2000/svg" width="15.808" height="15.81" viewBox="0 0 15.808 15.81">
  <path id="home" d="M15.383,6.876h0L8.933.427a1.455,1.455,0,0,0-2.058,0L.429,6.872l-.007.007a1.455,1.455,0,0,0,.969,2.48l.045,0h.257v4.746a1.705,1.705,0,0,0,1.7,1.7H5.919a.463.463,0,0,0,.463-.463V11.626a.778.778,0,0,1,.777-.777H8.648a.778.778,0,0,1,.777.777v3.721a.463.463,0,0,0,.463.463h2.523a1.705,1.705,0,0,0,1.7-1.7V9.361h.238a1.456,1.456,0,0,0,1.03-2.484Zm0,0" transform="translate(0.001)" fill="#9eb0ba"/>
</svg>
