<svg xmlns="http://www.w3.org/2000/svg" width="17.417" height="20" viewBox="0 0 17.417 20">
  <g id="idea" transform="translate(-33.066)">
    <path id="Path_289" data-name="Path 289" d="M116.8,88.909a4.692,4.692,0,0,1,1.417-2.167,5.692,5.692,0,0,0,2.042-4.375,5.751,5.751,0,1,0-9.458,4.375,4.471,4.471,0,0,1,1.458,2.167Z" transform="translate(-72.737 -73.618)" fill="#ffd15c"/>
    <path id="Path_290" data-name="Path 290" d="M200.731,223.451h.375l-1.667-6.208h.125a.823.823,0,0,0,.583-.25.4.4,0,0,1,.583,0,.712.712,0,0,0,1.083,0,.378.378,0,0,1,.292-.125.45.45,0,0,1,.292.125.756.756,0,0,0,.583.25h.125l-1.625,6.208h.375l1.708-6.5c0-.083,0-.167-.083-.208a.183.183,0,0,0-.208.042.36.36,0,0,1-.25.125.554.554,0,0,1-.333-.125.712.712,0,0,0-1.083,0,.4.4,0,0,1-.583,0,.672.672,0,0,0-.542-.25h0a.672.672,0,0,0-.542.25.473.473,0,0,1-.333.125.3.3,0,0,1-.25-.125.183.183,0,0,0-.208-.042.152.152,0,0,0-.083.208Z" transform="translate(-159.499 -208.076)" fill="#fff"/>
    <g id="Group_180" data-name="Group 180" transform="translate(39.524 15.25)">
      <path id="Path_291" data-name="Path 291" d="M222.933,489.6a1.391,1.391,0,0,0,2.583,0Z" transform="translate(-221.975 -485.725)" fill="#344a5e"/>
      <path id="Path_292" data-name="Path 292" d="M202.192,394.317H199.15a.747.747,0,0,1-.75-.75V390.4h4.542v3.167A.747.747,0,0,1,202.192,394.317Z" transform="translate(-198.4 -390.4)" fill="#344a5e"/>
    </g>
    <g id="Group_181" data-name="Group 181" transform="translate(39.066 15.917)">
      <path id="Path_293" data-name="Path 293" d="M191.625,408.384h-4.5a.462.462,0,0,1-.458-.458h0a.462.462,0,0,1,.458-.458h4.5a.462.462,0,0,1,.458.458h0A.462.462,0,0,1,191.625,408.384Z" transform="translate(-186.667 -407.467)" fill="#415a6b"/>
      <path id="Path_294" data-name="Path 294" d="M191.625,445.718h-4.5a.462.462,0,0,1-.458-.458h0a.462.462,0,0,1,.458-.458h4.5a.462.462,0,0,1,.458.458h0A.462.462,0,0,1,191.625,445.718Z" transform="translate(-186.667 -443.343)" fill="#415a6b"/>
    </g>
    <g id="Group_182" data-name="Group 182" transform="translate(33.066)">
      <path id="Path_295" data-name="Path 295" d="M245.75,0a.418.418,0,0,0-.417.417V1.833a.418.418,0,0,0,.417.417.394.394,0,0,0,.417-.417V.417A.418.418,0,0,0,245.75,0Z" transform="translate(-237.041)" fill="#ffd15c"/>
      <path id="Path_296" data-name="Path 296" d="M95.642,61.992a.412.412,0,0,0-.583.583l1,1a.412.412,0,1,0,.583-.583Z" transform="translate(-92.517 -59.45)" fill="#ffd15c"/>
      <path id="Path_297" data-name="Path 297" d="M34.9,212.267H33.483a.418.418,0,0,0-.417.417h0a.418.418,0,0,0,.417.417H34.9a.418.418,0,0,0,.417-.417h0A.448.448,0,0,0,34.9,212.267Z" transform="translate(-33.066 -203.975)" fill="#ffd15c"/>
      <path id="Path_298" data-name="Path 298" d="M96.058,337.192l-1,1a.412.412,0,0,0,.583.583l1-1a.412.412,0,1,0-.583-.583Z" transform="translate(-92.516 -323.9)" fill="#ffd15c"/>
      <path id="Path_299" data-name="Path 299" d="M370.841,337.192a.412.412,0,1,0-.583.583l1,1a.412.412,0,0,0,.583-.583Z" transform="translate(-356.966 -323.9)" fill="#ffd15c"/>
      <path id="Path_300" data-name="Path 300" d="M423.166,212.267H421.75a.418.418,0,0,0-.417.417h0a.418.418,0,0,0,.417.417h1.417a.418.418,0,0,0,.417-.417h0A.418.418,0,0,0,423.166,212.267Z" transform="translate(-406.166 -203.975)" fill="#ffd15c"/>
      <path id="Path_301" data-name="Path 301" d="M371.258,61.992l-1,1a.412.412,0,1,0,.583.583l1-1a.412.412,0,0,0-.583-.583Z" transform="translate(-356.966 -59.45)" fill="#ffd15c"/>
    </g>
  </g>
</svg>
