<svg xmlns="http://www.w3.org/2000/svg" width="67.474" height="116.822" viewBox="0 0 67.474 116.822">
  <g id="Group_1738" data-name="Group 1738" transform="translate(-671.421 -1847.195)">
    <g id="Group_1736" data-name="Group 1736">
      <g id="microphone-black-shape" transform="translate(685.949 1908.526)">
        <g id="Group_125" data-name="Group 125" transform="translate(0)">
          <path id="Path_273" data-name="Path 273" d="M156.85,38.416a10.7,10.7,0,0,0,10.671-10.67V10.672a10.274,10.274,0,0,0-3.134-7.537,10.626,10.626,0,0,0-15.073,0,10.275,10.275,0,0,0-3.135,7.537V27.745a10.7,10.7,0,0,0,10.671,10.67Z" transform="translate(-137.642)" fill="#22aae2"/>
          <path id="Path_274" data-name="Path 274" d="M110.87,183.358a2.134,2.134,0,0,0-3.634,1.5v4.269a14.927,14.927,0,0,1-25.495,10.554,14.386,14.386,0,0,1-4.385-10.554v-4.269a2.134,2.134,0,0,0-4.269,0v4.269A19.206,19.206,0,0,0,90.161,208.2v4.4H81.624a2.135,2.135,0,0,0,0,4.269h21.342a2.135,2.135,0,0,0,0-4.269H94.43v-4.4A19.208,19.208,0,0,0,111.5,189.127v-4.269A2.05,2.05,0,0,0,110.87,183.358Z" transform="translate(-73.087 -161.382)" fill="#22aae2"/>
        </g>
      </g>
      <g id="Group_1735" data-name="Group 1735" transform="translate(671.421 1847.195)">
        <path id="Path_316" data-name="Path 316" d="M6.247,22A23.2,23.2,0,0,1,1.616,35.864,4.52,4.52,0,1,0,8.841,41.3,32.3,32.3,0,0,0,15.287,22,32.184,32.184,0,0,0,8.016,1.655,4.52,4.52,0,1,0,1.024,7.383,23.13,23.13,0,0,1,6.247,22Zm0,0" transform="translate(12.242 33.215) rotate(-90)" fill="#22aae2"/>
        <path id="Path_548" data-name="Path 548" d="M4.423,15.579a16.427,16.427,0,0,1-3.279,9.816A3.2,3.2,0,1,0,6.26,29.242a22.873,22.873,0,0,0,4.565-13.663A22.789,22.789,0,0,0,5.676,1.172,3.2,3.2,0,1,0,.725,5.228,16.378,16.378,0,0,1,4.423,15.579Zm0,0" transform="translate(18.533 48.382) rotate(-90)" fill="#22aae2"/>
        <path id="Path_317" data-name="Path 317" d="M11.046,34.243A41.116,41.116,0,0,1,1.862,60.1a4.52,4.52,0,1,0,7.014,5.7A50.18,50.18,0,0,0,20.086,34.243,50.05,50.05,0,0,0,7.943,1.568,4.52,4.52,0,0,0,1.1,7.472,41,41,0,0,1,11.046,34.243Zm0,0" transform="translate(0 20.086) rotate(-90)" fill="#22aae2"/>
      </g>
    </g>
  </g>
</svg>
