<svg xmlns="http://www.w3.org/2000/svg" width="34.085" height="34.072" viewBox="0 0 34.085 34.072">
  <g id="puzzle" transform="translate(0 -0.099)">
    <path id="Path_519" data-name="Path 519" d="M12.16,139.164H1.883L0,144.154v11.922a2.607,2.607,0,0,0,2.607,2.607h11.6a.317.317,0,0,0,.318-.318V153a.56.56,0,0,0-.56-.56h-.547a1.117,1.117,0,0,1-1.736.175,1.676,1.676,0,0,1,0-2.344,1.117,1.117,0,0,1,1.736.174h.547a.56.56,0,0,0,.56-.559v-5.729Z" transform="translate(0 -129.528)" fill="#b8de9c"/>
    <g id="Group_1677" data-name="Group 1677" transform="translate(0 0.099)">
      <g id="XMLID_215_">
        <g id="Group_1676" data-name="Group 1676">
          <path id="Path_520" data-name="Path 520" d="M176.75.1H164.829L161.368,2.71V13.094l3.462,1.533h5.847a.339.339,0,0,1,.338.339v.767a1.117,1.117,0,0,0-.174,1.736,1.675,1.675,0,0,0,2.343,0,1.117,1.117,0,0,0-.174-1.736v-.767a.339.339,0,0,1,.338-.339h5.768a.241.241,0,0,0,.241-.241V2.706A2.607,2.607,0,0,0,176.751.1Z" transform="translate(-150.301 -0.099)" fill="#b3e5ee"/>
          <path id="Path_521" data-name="Path 521" d="M6.769,155.467a2.385,2.385,0,0,1-2.385-2.385V139.164h-2.5L0,144.154v11.922a2.607,2.607,0,0,0,2.607,2.607h11.6a.317.317,0,0,0,.318-.318v-2.9Z" transform="translate(0 -129.627)" fill="#a6d786"/>
          <path id="Path_522" data-name="Path 522" d="M17.37,6.272a1.673,1.673,0,0,1,0,2.343,1.117,1.117,0,0,1-1.736-.174h-.767a.338.338,0,0,0-.338.338v5.847H8.8a.559.559,0,0,1-.559-.559v-.547a1.117,1.117,0,0,0,.174-1.736,1.674,1.674,0,0,0-2.344,0,1.117,1.117,0,0,0,.174,1.736v.547a.559.559,0,0,1-.559.559H0V2.706A2.607,2.607,0,0,1,2.607.1H14.529V6.108a.338.338,0,0,0,.338.339h.767a1.117,1.117,0,0,1,1.736-.174Z" transform="translate(0 -0.099)" fill="#fbe88c"/>
        </g>
      </g>
      <path id="Path_523" data-name="Path 523" d="M251.989,299.591a2.607,2.607,0,0,0,2.607-2.607V285.1a.034.034,0,0,0-.034-.034h-5.975a.338.338,0,0,0-.338.338v.768a1.117,1.117,0,0,1,.174,1.736,1.674,1.674,0,0,1-2.344,0,1.118,1.118,0,0,1,.174-1.736V285.4a.338.338,0,0,0-.338-.338h-5.295a.552.552,0,0,0-.552.552v5.176a.559.559,0,0,1-.559.559h-.547a1.117,1.117,0,0,0-1.736-.174,1.674,1.674,0,0,0,0,2.344,1.117,1.117,0,0,0,1.736-.174h.547a.559.559,0,0,1,.559.559v5.311a.374.374,0,0,0,.374.374h11.547Z" transform="translate(-220.511 -265.519)" fill="#e79098"/>
    </g>
    <path id="Path_524" data-name="Path 524" d="M4.384.752A2.385,2.385,0,0,1,4.475.1H2.607A2.607,2.607,0,0,0,0,2.706V14.627H4.384Z" transform="translate(0 0)" fill="#f9de58"/>
    <path id="Path_525" data-name="Path 525" d="M243.887,297.752a1.186,1.186,0,0,1-1.186-1.186v-11.5h-2.08a.552.552,0,0,0-.552.552v5.176a.559.559,0,0,1-.559.559h-.547a1.117,1.117,0,0,0-1.736-.174,1.674,1.674,0,0,0,0,2.344,1.117,1.117,0,0,0,1.736-.174h.547a.559.559,0,0,1,.559.559v5.311a.374.374,0,0,0,.374.374H251.99a2.608,2.608,0,0,0,2.492-1.839H243.887Z" transform="translate(-220.512 -265.42)" fill="#e17983"/>
  </g>
</svg>
