<svg id="settings" xmlns="http://www.w3.org/2000/svg" width="15.382" height="15.81" viewBox="0 0 15.382 15.81">
  <g id="Group_126" data-name="Group 126" transform="translate(0)">
    <path id="Path_275" data-name="Path 275" d="M21,9.984,19.331,8.676a6.208,6.208,0,0,0,.055-.771,6.208,6.208,0,0,0-.055-.771L21,5.826A.394.394,0,0,0,21.1,5.32L19.516,2.581a.391.391,0,0,0-.482-.17l-1.968.794a6,6,0,0,0-1.336-.779l-.3-2.095a.407.407,0,0,0-.4-.332H11.876a.4.4,0,0,0-.391.332l-.3,2.095a5.85,5.85,0,0,0-1.336.779L7.884,2.411a.4.4,0,0,0-.482.17L5.821,5.32a.4.4,0,0,0,.095.506L7.584,7.134a6.208,6.208,0,0,0-.055.771,6.208,6.208,0,0,0,.055.771L5.916,9.984a.394.394,0,0,0-.095.506L7.4,13.229a.391.391,0,0,0,.482.17L9.853,12.6a6,6,0,0,0,1.336.779l.3,2.095a.4.4,0,0,0,.391.332h3.162a.4.4,0,0,0,.391-.332l.3-2.095a5.85,5.85,0,0,0,1.336-.779l1.968.794a.4.4,0,0,0,.482-.17l1.581-2.739A.4.4,0,0,0,21,9.984Zm-7.541.688A2.767,2.767,0,1,1,16.224,7.9,2.765,2.765,0,0,1,13.457,10.672Z" transform="translate(-5.768)" fill="#9eb0ba"/>
  </g>
</svg>
