<svg xmlns="http://www.w3.org/2000/svg" xmlns:xlink="http://www.w3.org/1999/xlink" width="54" height="54" viewBox="0 0 54 54">
  <defs>
    <filter id="scale-white-color-0" x="-20" y="-20" width="114" height="114" filterUnits="userSpaceOnUse">
      <feOffset dx="10" dy="10" input="SourceAlpha"/>
      <feGaussianBlur stdDeviation="10" result="blur"/>
      <feFlood flood-color="#080821" flood-opacity="0.059"/>
      <feComposite operator="in" in2="blur"/>
      <feComposite in="SourceGraphic"/>
    </filter>
    <clipPath id="clip-path">
      <g transform="matrix(1, 0, 0, 1, 0, 0)" filter="url(#scale-white-color-0)">
        <rect id="scale-white-color-0-2" data-name="scale-white-color-0" width="54" height="54" rx="27" transform="translate(0.1)" fill="#1414fe"/>
      </g>
    </clipPath>
  </defs>
  <g id="Group_187" data-name="Group 187" transform="translate(-161 -155)">
    <g id="push_light_btn" transform="translate(160.897 155)">
      <g id="Group_39" data-name="Group 39">
        <rect id="scale-white-color-0-3" data-name="scale-white-color-0" width="54" height="54" rx="27" transform="translate(0.103)" fill="#f3f3f6"/>
        <g id="Mask_Group_2" data-name="Mask Group 2" clip-path="url(#clip-path)">
          <g id="scale-white-color-0-4" data-name="scale-white-color-0" transform="translate(-1.462 -1.462)" fill="none" stroke="#080821" stroke-width="4" opacity="0.16">
            <rect width="61.067" height="61.067" rx="30.534" stroke="none"/>
            <rect x="2" y="2" width="57.067" height="57.067" rx="28.534" fill="none"/>
          </g>
          <g id="scale-white-color-0-5" data-name="scale-white-color-0" transform="translate(-6.785 -6.785)" fill="none" stroke="#fff" stroke-width="4">
            <rect width="61.067" height="61.067" rx="30.534" stroke="none"/>
            <rect x="2" y="2" width="57.067" height="57.067" rx="28.534" fill="none"/>
          </g>
        </g>
      </g>
      <g id="scale-white-color-0-6" data-name="scale-white-color-0" transform="translate(0.103)" fill="none" stroke="#ebebeb" stroke-width="0.5" opacity="0.6">
        <rect width="54" height="54" rx="27" stroke="none"/>
        <rect x="0.25" y="0.25" width="53.5" height="53.5" rx="26.75" fill="none"/>
      </g>
    </g>
    <g id="settings" transform="translate(174 168)">
      <g id="Group_126" data-name="Group 126" transform="translate(0)">
        <path id="Path_275" data-name="Path 275" d="M32.587,17.581l-2.937-2.3a10.931,10.931,0,0,0,.1-1.357,10.931,10.931,0,0,0-.1-1.357l2.944-2.3a.694.694,0,0,0,.167-.891L29.977,4.545a.689.689,0,0,0-.849-.3l-3.466,1.4A10.562,10.562,0,0,0,23.31,4.273L22.788.585a.716.716,0,0,0-.7-.585H16.524a.7.7,0,0,0-.689.585l-.522,3.689a10.3,10.3,0,0,0-2.352,1.371l-3.466-1.4a.7.7,0,0,0-.849.3L5.861,9.368a.7.7,0,0,0,.167.891l2.937,2.3a10.931,10.931,0,0,0-.1,1.357,10.931,10.931,0,0,0,.1,1.357l-2.937,2.3a.694.694,0,0,0-.167.891l2.784,4.823a.689.689,0,0,0,.849.3l3.466-1.4a10.562,10.562,0,0,0,2.352,1.371l.522,3.689a.7.7,0,0,0,.689.585h5.568a.7.7,0,0,0,.689-.585l.522-3.689A10.3,10.3,0,0,0,25.655,22.2l3.466,1.4a.7.7,0,0,0,.849-.3l2.784-4.823A.7.7,0,0,0,32.587,17.581ZM19.308,18.792A4.872,4.872,0,1,1,24.18,13.92,4.868,4.868,0,0,1,19.308,18.792Z" transform="translate(-5.768)" fill="#9eb0ba"/>
      </g>
    </g>
  </g>
</svg>
