<svg xmlns="http://www.w3.org/2000/svg" width="34.085" height="34.084" viewBox="0 0 34.085 34.084">
  <g id="sleep" transform="translate(0.001 -0.007)">
    <path id="Path_507" data-name="Path 507" d="M32.514,24.834c-.2.2-.413.2-.627.386a14.948,14.948,0,0,1-11,3.761,15.434,15.434,0,0,1-9.771-4.353A15.017,15.017,0,0,1,10.9,3.662c.188-.2.379-.247.574-.43a.707.707,0,0,0-.757-1.167c-.37.153-.53.181-.89.36a17.684,17.684,0,0,0,6.822,33.5A17.055,17.055,0,0,0,29.91,30.776a17.837,17.837,0,0,0,3.911-5.75c.3-.724-.427-1.12-.962-.548Q32.69,24.658,32.514,24.834Z" transform="translate(0 -1.864)" fill="#ffe177"/>
    <path id="Path_508" data-name="Path 508" d="M178.148,31.779c-.244-3.435-2.421-6.078-5.918-6.078a6.729,6.729,0,0,0-1.028.011q-.246.038-.486.095a6.619,6.619,0,1,0-3.109,11.188l.066.064a6.232,6.232,0,0,0,6.6,6.078c3.657,0,5.936-2.9,5.936-6.553a6.6,6.6,0,0,0-2.066-4.8Z" transform="translate(-148.536 -22.279)" fill="#eef5f6"/>
    <g id="Group_1670" data-name="Group 1670" transform="translate(14.907 5.442)">
      <g id="Group_1669" data-name="Group 1669">
        <path id="Path_509" data-name="Path 509" d="M221.19,85.235h-3.3a.514.514,0,0,1-.431-.8l2.707-4.154H217.99a.514.514,0,1,1,0-1.029h3.123a.514.514,0,0,1,.431.8l-2.707,4.154h2.353a.514.514,0,0,1,0,1.029Z" transform="translate(-217.374 -79.257)" fill="#7a6d79"/>
      </g>
    </g>
    <g id="Group_1672" data-name="Group 1672" transform="translate(19.45 7.613)">
      <g id="Group_1671" data-name="Group 1671">
        <path id="Path_510" data-name="Path 510" d="M287.427,116.89h-3.3a.514.514,0,0,1-.431-.8l2.707-4.154h-2.174a.514.514,0,0,1,0-1.029h3.124a.514.514,0,0,1,.431.8l-2.707,4.154h2.353a.514.514,0,1,1,0,1.029Z" transform="translate(-283.611 -110.912)" fill="#7a6d79"/>
      </g>
    </g>
    <g id="Group_1674" data-name="Group 1674" transform="translate(23.993 9.784)">
      <g id="Group_1673" data-name="Group 1673">
        <path id="Path_511" data-name="Path 511" d="M353.664,148.545h-3.3a.514.514,0,0,1-.431-.8l2.707-4.154h-2.174a.514.514,0,1,1,0-1.029h3.123a.514.514,0,0,1,.431.8l-2.707,4.154h2.353a.514.514,0,0,1,0,1.029Z" transform="translate(-349.848 -142.567)" fill="#7a6d79"/>
      </g>
    </g>
    <path id="Path_512" data-name="Path 512" d="M184.007,257.056a1.344,1.344,0,0,1-1.39,1.39,1.4,1.4,0,1,1,0-2.78A1.344,1.344,0,0,1,184.007,257.056Z" transform="translate(-168.735 -238.112)" fill="#eef5f6"/>
    <path id="Path_513" data-name="Path 513" d="M76.1,1.231q-.293.274-.574.567a14.982,14.982,0,0,0,11.84,25.319A14.982,14.982,0,0,1,77.58,1.8q.281-.293.574-.567A.707.707,0,0,0,77.4.064q-.555.229-1.1.5a.672.672,0,0,1-.205.669Z" transform="translate(-66.471 0)" fill="#ffc344"/>
    <path id="Path_514" data-name="Path 514" d="M259.026,323.555q-.169.18-.345.357-.307.307-.627.591a17.692,17.692,0,0,1-15.234,10.7,17.7,17.7,0,0,0,17.374-10.9A.707.707,0,0,0,259.026,323.555Z" transform="translate(-226.167 -301.147)" fill="#ffc344"/>
    <g id="Group_1675" data-name="Group 1675" transform="translate(22.666 3.354)">
      <path id="Path_515" data-name="Path 515" d="M338.132,54.962A6.623,6.623,0,0,0,330.5,48.9a6.624,6.624,0,0,1,5.575,6.066,6.622,6.622,0,0,1-3.526,11.346,6.622,6.622,0,0,0,5.584-11.346Z" transform="translate(-330.5 -48.816)" fill="#deecf1"/>
    </g>
    <path id="Path_516" data-name="Path 516" d="M195.906,254.864a1.453,1.453,0,0,0-.48.083,1.457,1.457,0,0,1,0,2.752,1.458,1.458,0,1,0,.48-2.834Z" transform="translate(-182.024 -237.379)" fill="#deecf1"/>
    <path id="Path_517" data-name="Path 517" d="M268.977,255.993a1.831,1.831,0,0,1-1.877,1.877,1.885,1.885,0,1,1,0-3.754A1.831,1.831,0,0,1,268.977,255.993Z" transform="translate(-246.97 -236.681)" fill="#eef5f6"/>
    <path id="Path_518" data-name="Path 518" d="M284.212,253.125a1.941,1.941,0,0,0-.686.125,1.946,1.946,0,0,1,0,3.642,1.946,1.946,0,1,0,.686-3.767Z" transform="translate(-264.082 -235.759)" fill="#deecf1"/>
  </g>
</svg>
