<svg xmlns="http://www.w3.org/2000/svg" width="49" height="49" viewBox="0 0 49 49">
  <g id="Group_1744" data-name="Group 1744" transform="translate(-94 -233)">
    <g id="Group_1743" data-name="Group 1743">
      <rect id="scale-white-color-0" width="49" height="49" rx="10" transform="translate(94 233)" fill="#f3f3f6"/>
      <g id="bar-chart" transform="translate(108 250)">
        <path id="Path_269" data-name="Path 269" d="M6.2,12.084v4.985H1V12.084A1.084,1.084,0,0,1,2.084,11H5.118A1.084,1.084,0,0,1,6.2,12.084Z" transform="translate(-0.133 -4.065)" fill="#22aae2"/>
        <path id="Path_270" data-name="Path 270" d="M14.2,8.084v8.453H9V8.084A1.084,1.084,0,0,1,10.084,7h3.034A1.084,1.084,0,0,1,14.2,8.084Z" transform="translate(-1.198 -3.532)" fill="#22aae2"/>
        <path id="Path_271" data-name="Path 271" d="M22.2,4.084V16H17V4.084A1.084,1.084,0,0,1,18.084,3h3.034A1.084,1.084,0,0,1,22.2,4.084Z" transform="translate(-2.262 -3)" fill="#22aae2"/>
        <path id="Path_272" data-name="Path 272" d="M20.156,20.8H.65a.65.65,0,1,1,0-1.3H20.156a.65.65,0,1,1,0,1.3Z" transform="translate(0 -5.196)" fill="#22aae2"/>
      </g>
    </g>
  </g>
</svg>
