<svg xmlns="http://www.w3.org/2000/svg" xmlns:xlink="http://www.w3.org/1999/xlink" width="98" height="97" viewBox="0 0 98 97">
  <defs>
    <filter id="scale-white-color-0" x="12" y="12" width="86" height="85" filterUnits="userSpaceOnUse">
      <feOffset dx="6" dy="6" input="SourceAlpha"/>
      <feGaussianBlur stdDeviation="6" result="blur"/>
      <feFlood flood-color="#080821" flood-opacity="0.059"/>
      <feComposite operator="in" in2="blur"/>
      <feComposite in="SourceGraphic"/>
    </filter>
    <filter id="scale-white-color-0-2" x="0" y="0" width="86" height="85" filterUnits="userSpaceOnUse">
      <feOffset dx="-6" dy="-6" input="SourceAlpha"/>
      <feGaussianBlur stdDeviation="6" result="blur-2"/>
      <feFlood flood-color="#fff" flood-opacity="0.702"/>
      <feComposite operator="in" in2="blur-2"/>
      <feComposite in="SourceGraphic"/>
    </filter>
    <linearGradient id="linear-gradient" x1="-0.062" y1="-0.136" x2="0.378" y2="0.386" gradientUnits="objectBoundingBox">
      <stop offset="0" stop-opacity="0.302"/>
      <stop offset="1" stop-opacity="0"/>
    </linearGradient>
  </defs>
  <g id="Group_1741" data-name="Group 1741" transform="translate(-69 -299)">
    <g id="up_light_btn" transform="translate(93.281 322.611)">
      <g id="Group_38" data-name="Group 38" transform="translate(0 0)">
        <g transform="matrix(1, 0, 0, 1, -24.28, -23.61)" filter="url(#scale-white-color-0)">
          <rect id="scale-white-color-0-3" data-name="scale-white-color-0" width="50" height="49" rx="20" transform="translate(24 24)" fill="#f3f3f6"/>
        </g>
        <g transform="matrix(1, 0, 0, 1, -24.28, -23.61)" filter="url(#scale-white-color-0-2)">
          <rect id="scale-white-color-0-4" data-name="scale-white-color-0" width="50" height="49" rx="10" transform="translate(24 24)" fill="#f3f3f6"/>
        </g>
      </g>
      <g id="scale-white-color-0-5" data-name="scale-white-color-0" transform="translate(-0.281 0.389)" fill="none" stroke="#ebebeb" stroke-width="0.5" opacity="0.16">
        <rect width="50" height="49" rx="20" stroke="none"/>
        <rect x="0.25" y="0.25" width="49.5" height="48.5" rx="19.75" fill="none"/>
      </g>
      <rect id="scale-white-color-0-6" data-name="scale-white-color-0" width="50" height="49" rx="10" transform="translate(-0.281 0.389)" opacity="0.1" fill="url(#linear-gradient)"/>
    </g>
    <g id="bar-chart" transform="translate(108 340)">
      <path id="Path_269" data-name="Path 269" d="M6.2,12.084v4.985H1V12.084A1.084,1.084,0,0,1,2.084,11H5.118A1.084,1.084,0,0,1,6.2,12.084Z" transform="translate(-0.133 -4.065)" fill="#9eb0ba"/>
      <path id="Path_270" data-name="Path 270" d="M14.2,8.084v8.453H9V8.084A1.084,1.084,0,0,1,10.084,7h3.034A1.084,1.084,0,0,1,14.2,8.084Z" transform="translate(-1.198 -3.532)" fill="#9eb0ba"/>
      <path id="Path_271" data-name="Path 271" d="M22.2,4.084V16H17V4.084A1.084,1.084,0,0,1,18.084,3h3.034A1.084,1.084,0,0,1,22.2,4.084Z" transform="translate(-2.262 -3)" fill="#9eb0ba"/>
      <path id="Path_272" data-name="Path 272" d="M20.156,20.8H.65a.65.65,0,1,1,0-1.3H20.156a.65.65,0,1,1,0,1.3Z" transform="translate(0 -5.196)" fill="#9eb0ba"/>
    </g>
  </g>
</svg>
