<svg xmlns="http://www.w3.org/2000/svg" width="34.085" height="33.471" viewBox="0 0 34.085 33.471">
  <g id="yoga" transform="translate(0 -4.611)">
    <g id="Group_1678" data-name="Group 1678" transform="translate(0.022 29.189)">
      <path id="Path_526" data-name="Path 526" d="M32.956,376.247l-.806-.389a20.705,20.705,0,0,0-9-2.058h-11.6a20.7,20.7,0,0,0-9,2.058l-.806.389a2.508,2.508,0,0,0,1.09,4.767H31.866a2.508,2.508,0,0,0,1.09-4.767Z" transform="translate(-0.333 -373.801)" fill="#c1d5e4"/>
    </g>
    <g id="Group_1679" data-name="Group 1679" transform="translate(19.114 29.189)">
      <path id="Path_527" data-name="Path 527" d="M300.644,376.247l-.806-.389a20.705,20.705,0,0,0-9-2.058h-3.727a20.705,20.705,0,0,1,9,2.058l.806.389a2.508,2.508,0,0,1-1.09,4.767h3.727a2.508,2.508,0,0,0,1.09-4.767Z" transform="translate(-287.113 -373.801)" fill="#98b9d3"/>
    </g>
    <g id="Group_1680" data-name="Group 1680" transform="translate(0.022 31.086)">
      <path id="Path_528" data-name="Path 528" d="M.333,405.107a2.508,2.508,0,0,1,1.418-2.259l.709-.342,3.408-.184a15.813,15.813,0,0,1,4.35.369l7.8,1.769v3.156H2.841a2.508,2.508,0,0,1-2.508-2.508Z" transform="translate(-0.333 -402.299)" fill="#dae7ef"/>
    </g>
    <g id="Group_1681" data-name="Group 1681" transform="translate(0.022 33.176)">
      <path id="Path_529" data-name="Path 529" d="M.439,433.688a2.507,2.507,0,0,0,2.4,3.226H18.016v-1.439H2.841a2.509,2.509,0,0,1-2.4-1.787Z" transform="translate(-0.333 -433.688)" fill="#c1d5e4"/>
    </g>
    <g id="Group_1682" data-name="Group 1682" transform="translate(6.413 32.305)">
      <path id="Path_530" data-name="Path 530" d="M96.606,425.162l1.435-1.375a2.853,2.853,0,0,1,1.011-.626l2.182-.782a1.368,1.368,0,0,0,.542-.358l.9-.974a1.368,1.368,0,0,1,1.728-.23l.853.532a2.815,2.815,0,0,0,.65.3l1.7.533.262,2.218-7.307.616a4.571,4.571,0,0,0-1.55.412l-1.956.912a.5.5,0,0,1-.7-.337.881.881,0,0,1,.248-.84Z" transform="translate(-96.335 -420.609)" fill="#ffcbbe"/>
    </g>
    <g id="Group_1683" data-name="Group 1683" transform="translate(6.413 34.887)">
      <path id="Path_531" data-name="Path 531" d="M107.727,459.4l-7.272.613a4.57,4.57,0,0,0-1.55.412l-1.956.912a.5.5,0,0,1-.34.03l0,0a.881.881,0,0,0-.247.84.5.5,0,0,0,.7.337l1.956-.912a4.569,4.569,0,0,1,1.55-.412l7.307-.616Z" transform="translate(-96.334 -459.4)" fill="#eaac9d"/>
    </g>
    <g id="Group_1684" data-name="Group 1684" transform="translate(16.38 31.086)">
      <path id="Path_532" data-name="Path 532" d="M263.727,405.107a2.508,2.508,0,0,0-1.418-2.259l-.709-.342-3.408-.184a15.813,15.813,0,0,0-4.35.369l-7.48,1.7a.408.408,0,0,0-.318.4v2.421a.408.408,0,0,0,.408.408h14.767A2.508,2.508,0,0,0,263.727,405.107Z" transform="translate(-246.044 -402.299)" fill="#dae7ef"/>
    </g>
    <g id="Group_1685" data-name="Group 1685" transform="translate(16.38 31.565)">
      <path id="Path_533" data-name="Path 533" d="M262.309,409.56l-.146-.07a2.506,2.506,0,0,1-2.344,3.4H246.044v1.031a.408.408,0,0,0,.408.408h14.767a2.508,2.508,0,0,0,1.09-4.767Z" transform="translate(-246.044 -409.49)" fill="#c1d5e4"/>
    </g>
    <g id="Group_1686" data-name="Group 1686" transform="translate(21.07 14.422)">
      <path id="Path_534" data-name="Path 534" d="M329.506,169.735l-.633-2.42a.817.817,0,0,0-.69-.6l-2.257-.278a.749.749,0,0,1-.459-.236l-3.433-3.725a.884.884,0,0,1-.224-.465l-1.069-6.932a3.409,3.409,0,0,0-1.367-2.24l-.281-.2a3.409,3.409,0,0,0-2-.65l-.588,2.637,2.817,9.6a1.225,1.225,0,0,0,.486.667l4.891,3.333a4.31,4.31,0,0,0,.766.416l3.584,1.5a.34.34,0,0,0,.46-.4Z" transform="translate(-316.503 -151.983)" fill="#ffcbbe"/>
    </g>
    <g id="Group_1687" data-name="Group 1687" transform="translate(0 14.422)">
      <path id="Path_535" data-name="Path 535" d="M.011,169.735l.633-2.42a.817.817,0,0,1,.69-.6l2.257-.278a.749.749,0,0,0,.459-.236l3.433-3.725a.885.885,0,0,0,.224-.465l1.069-6.932a3.409,3.409,0,0,1,1.367-2.24l.281-.2a3.409,3.409,0,0,1,2-.65l.588,2.637-2.817,9.6a1.225,1.225,0,0,1-.486.667l-4.891,3.333a4.311,4.311,0,0,1-.766.416l-3.584,1.5a.34.34,0,0,1-.46-.4Z" transform="translate(0 -151.983)" fill="#ffcbbe"/>
    </g>
    <g id="Group_1688" data-name="Group 1688" transform="translate(0 14.774)">
      <path id="Path_536" data-name="Path 536" d="M9.3,168.337a1.225,1.225,0,0,1-.486.667l-4.891,3.333a4.307,4.307,0,0,1-.766.416L.19,173.993l-.178.683a.34.34,0,0,0,.46.4l3.584-1.5a4.306,4.306,0,0,0,.766-.416l4.891-3.333a1.225,1.225,0,0,0,.486-.667l2.817-9.6-.509-2.284Z" transform="translate(0 -157.276)" fill="#eaac9d"/>
    </g>
    <g id="Group_1689" data-name="Group 1689" transform="translate(21.494 14.422)">
      <path id="Path_537" data-name="Path 537" d="M335.448,169.734l-.633-2.42a.817.817,0,0,0-.69-.6l-2.257-.278a.749.749,0,0,1-.459-.236l-3.433-3.725a.885.885,0,0,1-.224-.465l-1.069-6.932a3.41,3.41,0,0,0-1.367-2.24l-.281-.2a3.409,3.409,0,0,0-2-.65l-.164.736a3.409,3.409,0,0,1,1.247.565l.281.2a3.409,3.409,0,0,1,1.367,2.24l1.069,6.932a.885.885,0,0,0,.224.465l3.433,3.725a.749.749,0,0,0,.459.236l2.257.278a.817.817,0,0,1,.69.6l.5,1.923.589.246a.34.34,0,0,0,.46-.4Z" transform="translate(-322.869 -151.982)" fill="#eaac9d"/>
    </g>
    <g id="Group_1690" data-name="Group 1690" transform="translate(11.506 13.958)">
      <path id="Path_538" data-name="Path 538" d="M182.687,160.861l.953-.137a.321.321,0,0,0,.229-.484l-.338-.558a7.816,7.816,0,0,1-1.129-4.046v-1.1a5.1,5.1,0,0,1,.711-2.6,3.87,3.87,0,0,0,.539-1.97v-3.644a1.315,1.315,0,0,0-1.315-1.315h-7.915a1.315,1.315,0,0,0-1.315,1.315v3.644a3.871,3.871,0,0,0,.539,1.97,5.1,5.1,0,0,1,.711,2.6v1.1a7.816,7.816,0,0,1-1.129,4.046l-.338.558a.321.321,0,0,0,.229.484l.953.137A30.361,30.361,0,0,0,182.687,160.861Z" transform="translate(-172.844 -145.009)" fill="#86f1a7"/>
    </g>
    <g id="Group_1691" data-name="Group 1691" transform="translate(19.148 13.958)">
      <path id="Path_539" data-name="Path 539" d="M291.017,160.243l-.338-.558a7.816,7.816,0,0,1-1.129-4.046v-1.1a5.1,5.1,0,0,1,.711-2.6,3.87,3.87,0,0,0,.539-1.97v-3.644a1.315,1.315,0,0,0-1.315-1.315h-.557v5.139a4.011,4.011,0,0,1-.558,2.042,5.288,5.288,0,0,0-.736,2.692v1.141a8.1,8.1,0,0,0,1.17,4.193l.438.725q.3-.037.593-.079l.953-.137A.321.321,0,0,0,291.017,160.243Z" transform="translate(-287.634 -145.011)" fill="#78d090"/>
    </g>
    <g id="Group_1692" data-name="Group 1692" transform="translate(14.98 11.105)">
      <path id="Path_540" data-name="Path 540" d="M227.943,106.535h-1.729a1.2,1.2,0,0,1-1.2-1.2v-3.171h4.125v3.171A1.2,1.2,0,0,1,227.943,106.535Z" transform="translate(-225.016 -102.166)" fill="#eaac9d"/>
    </g>
    <g id="Group_1693" data-name="Group 1693" transform="translate(16.687 11.105)">
      <path id="Path_541" data-name="Path 541" d="M251.91,102.166v3.116a1.253,1.253,0,0,1-1.253,1.253h1.22a1.2,1.2,0,0,0,1.2-1.2v-3.171H251.91Z" transform="translate(-250.657 -102.166)" fill="#df9380"/>
    </g>
    <g id="Group_1694" data-name="Group 1694" transform="translate(14.092 4.611)">
      <path id="Path_542" data-name="Path 542" d="M215.74,4.611h-2.2a1.864,1.864,0,0,0-1.864,1.864V7.8l.133.191h5.662L217.6,7.8V6.475A1.864,1.864,0,0,0,215.74,4.611Z" transform="translate(-211.675 -4.611)" fill="#be694f"/>
    </g>
    <g id="Group_1695" data-name="Group 1695" transform="translate(16.151 4.611)">
      <path id="Path_543" data-name="Path 543" d="M244.614,4.611h-2.005a1.921,1.921,0,0,1,1.921,1.921V7.988h1.815l.133-.191V6.475A1.864,1.864,0,0,0,244.614,4.611Z" transform="translate(-242.609 -4.611)" fill="#be694f"/>
    </g>
    <path id="Path_544" data-name="Path 544" d="M202.427,43.075a.786.786,0,0,0-.7.015h0V42.03a.458.458,0,0,0-.458-.458h-5.012a.458.458,0,0,0-.458.458V43.1a.8.8,0,0,0-.725-.028c-.453.237-.542.961-.2,1.617a1.421,1.421,0,0,0,1.106.834,3.031,3.031,0,0,0,.754,1.156l.689.659a1.938,1.938,0,0,0,.406.3l.859.15.958-.124a1.937,1.937,0,0,0,.455-.324l.689-.659a3.031,3.031,0,0,0,.754-1.156h0a1.441,1.441,0,0,0,1.078-.834c.343-.657.254-1.381-.2-1.617Z" transform="translate(-181.709 -34.5)" fill="#ffcbbe"/>
    <path id="Path_545" data-name="Path 545" d="M246.783,43.075a.787.787,0,0,0-.7.015V42.03a.458.458,0,0,0-.458-.458h-.843v2.716a3.032,3.032,0,0,1-.936,2.191l-.689.659a1.929,1.929,0,0,1-.97.5,1.938,1.938,0,0,0,2.272-.3l.689-.659a3.031,3.031,0,0,0,.754-1.157,1.441,1.441,0,0,0,1.079-.834c.343-.657.254-1.381-.2-1.617Z" transform="translate(-226.065 -34.5)" fill="#eaac9d"/>
  </g>
</svg>
